<?xml version="1.0" encoding="UTF-8"?><svg id="Capa_1" xmlns="http://www.w3.org/2000/svg" viewBox="0 0 495.09 162.01"><defs><style>.cls-1{letter-spacing:-.04em;}.cls-2{font-family:MyriadPro-Regular, 'Myriad Pro';font-size:39px;}.cls-2,.cls-3{fill:#1d1d1b;}.cls-4{letter-spacing:-.02em;}</style></defs><g><path class="cls-3" d="M494.73,106.48h-42.65c3.45-9.15-1.16-15.38-5.91-21.85-19.91-27.08-39.6-54.31-60.54-83.09,11.32,0,21.44-1.56,30.73,.54,6.31,1.43,9.08,10.05,13.08,15.59,17.31,23.96,33.95,48.4,51.11,72.48,3.97,5.57,8.98,10.39,14.19,16.33Z"/><path class="cls-3" d="M342.83,106.39c3.02-7.08,.18-13.04-2.23-19.03-6.7-16.66-13.43-33.31-20.19-49.96-1.13-2.78-2.68-5.51-1.04-8.56,4.84-9.02,9.75-18,15.64-28.85,12.19,32.45,23.58,61.72,37.53,92.92,2.21,5.13,6.19,8.63,10.59,13.46h-40.3Z"/><path class="cls-3" d="M211.11,106.68h-32.63c3.41-17.67,1.59-35.21,1.68-52.65,.09-17.29,1.46-34.66-1.64-52.39h22.47c1.99,2.15,1.05,4.72,1.06,7.06,.07,24.72-.02,49.44,.09,74.16,.04,8.33-.47,16.94,8.98,23.83Z"/><path class="cls-3" d="M116,2.23c-25.29,23.09-26.71,69.31-3.79,100.92-8.01,1.31-13.84-1.35-23.48-10.72C59.22,64.56,73.95,4.99,116,2.23Z"/><path class="cls-3" d="M134.16,2.45c55.35,4.31,56.82,94.55,2.91,102.73,14.82-14.78,16.14-33.35,16.14-51.89,0-18.63-1.56-37.21-19.05-50.84Z"/><path class="cls-3" d="M49.2,103.9c19.64-27.13-15.49-36.24-31.94-50.92C-.08,38.36,.11,20.1,18,5.77c1.07,1.43,1.48,2.49,.82,4.69-3,10.03,.38,18.22,8.71,24.28,10.33,7.51,21.16,14.36,31.14,22.3,14.71,11.7,15.73,30.93,2.99,42.69-3.58,3.3-7.47,5.37-12.51,4.11l.06,.07Z"/><path class="cls-3" d="M232.58,3.72c39.85,1.4,58.49,48.45,38.75,79.72-6.87,11.77-21.69,20.66-31.99,19.79,29.8-33.91,28.09-65.5-6.75-99.51Z"/><path class="cls-3" d="M466.78,1.27h28.32c-6.3,6.67-10.52,13.39-14.11,22.39-3.18-8.63-6.75-15.92-14.21-22.39Z"/><path class="cls-3" d="M0,105.96c6.55-6.6,10.59-13.74,13.94-23.21,2.76,9.53,6.85,16.41,13.38,23.21H0Z"/><path class="cls-3" d="M58.09,24.07c-3.7-8.93-7.3-15.74-13.66-22.07,9.25-1.36,17.35-.83,26.8-.41-6.03,6.69-10.2,13.14-13.14,22.48Z"/><path class="cls-3" d="M415.34,106.57h-27.87c5.56-7.02,10.41-13.31,13.13-22.45,4.07,8.67,7.14,15.88,14.75,22.45Z"/><path class="cls-3" d="M296.66,83.68c1.65,9.31,3.34,16.73,11.82,22.54h-27.28c4.96-7.23,9.59-13.98,15.46-22.54Z"/><path class="cls-3" d="M49.15,103.83l-1.21,1.44c.42-.46,.85-.91,1.27-1.37l-.06-.07Z"/></g><text class="cls-2" transform="translate(155.41 152.26)"><tspan x="0" y="0">C</tspan><tspan class="cls-1" x="22.62" y="0">L</tspan><tspan class="cls-4" x="39.51" y="0">O</tspan><tspan x="65.4" y="0">THES</tspan></text></svg>